<svg width="72" height="40" viewBox="0 0 72 40" fill="none" xmlns="http://www.w3.org/2000/svg">
<g clip-path="url(#clip0_3419_806)">
<path fill-rule="evenodd" clip-rule="evenodd" d="M72.0946 20.5008C72.0946 15.374 69.6113 11.3286 64.865 11.3286C60.0987 11.3286 57.2148 15.374 57.2148 20.4607C57.2148 26.4887 60.6194 29.5328 65.5058 29.5328C67.889 29.5328 69.6914 28.9921 71.0532 28.2311V24.2257C69.6914 24.9066 68.1293 25.3272 66.1467 25.3272C64.2041 25.3272 62.4818 24.6463 62.2615 22.2832H72.0545C72.0545 22.0228 72.0946 20.9814 72.0946 20.5008ZM62.2015 18.5983C62.2015 16.3353 63.5833 15.394 64.845 15.394C66.0666 15.394 67.3683 16.3353 67.3683 18.5983H62.2015Z" fill="#999999"/>
<path fill-rule="evenodd" clip-rule="evenodd" d="M49.484 11.3286C47.5214 11.3286 46.2597 12.2498 45.5588 12.8907L45.2984 11.649H40.8926V35L45.8992 33.9386L45.9192 28.2711C46.6402 28.7918 47.7016 29.5328 49.464 29.5328C53.0487 29.5328 56.313 26.649 56.313 20.3005C56.293 14.4928 52.9886 11.3286 49.484 11.3286ZM48.2824 25.1269C47.1008 25.1269 46.3999 24.7064 45.9192 24.1857L45.8992 16.7558C46.4199 16.175 47.1409 15.7745 48.2824 15.7745C50.1048 15.7745 51.3665 17.8172 51.3665 20.4407C51.3665 23.1243 50.1248 25.1269 48.2824 25.1269Z" fill="#999999"/>
<path fill-rule="evenodd" clip-rule="evenodd" d="M34.0117 10.1468L39.0384 9.0654V5L34.0117 6.06141V10.1468Z" fill="#999999"/>
<path d="M39.0384 11.6686H34.0117V29.1918H39.0384V11.6686Z" fill="#999999"/>
<path fill-rule="evenodd" clip-rule="evenodd" d="M28.6208 13.1515L28.3004 11.6695H23.9746V29.1928H28.9813V17.317C30.1628 15.775 32.1655 16.0554 32.7863 16.2756V11.6695C32.1455 11.4292 29.8023 10.9886 28.6208 13.1515Z" fill="#999999"/>
<path fill-rule="evenodd" clip-rule="evenodd" d="M18.5999 7.32349L13.7134 8.36487L13.6934 24.4062C13.6934 27.3701 15.9163 29.553 18.8802 29.553C20.5224 29.553 21.724 29.2526 22.3849 28.8921V24.8267C21.744 25.0871 18.5798 26.0083 18.5798 23.0444V15.9349H22.3849V11.6693H18.5798L18.5999 7.32349Z" fill="#999999"/>
<path fill-rule="evenodd" clip-rule="evenodd" d="M5.06673 16.7558C5.06673 15.9748 5.70758 15.6744 6.76899 15.6744C8.29101 15.6744 10.2136 16.135 11.7356 16.9561V12.2498C10.0734 11.589 8.43119 11.3286 6.76899 11.3286C2.70359 11.3286 0 13.4514 0 16.9961C0 22.5235 7.6101 21.6423 7.6101 24.0255C7.6101 24.9467 6.80904 25.2471 5.68755 25.2471C4.02534 25.2471 1.90252 24.5662 0.220292 23.645V28.4113C2.08276 29.2124 3.96526 29.5528 5.68755 29.5528C9.85308 29.5528 12.7169 27.4901 12.7169 23.9053C12.6969 17.9374 5.06673 18.9988 5.06673 16.7558Z" fill="#999999"/>
</g>
<defs>
<clipPath id="clip0_3419_806">
<rect width="72" height="40" fill="white"/>
</clipPath>
</defs>
</svg>
