<svg width="152" height="40" viewBox="0 0 152 40" fill="none" xmlns="http://www.w3.org/2000/svg">
<g clip-path="url(#clip0_3419_802)">
<path d="M17.6739 10.6374L8.83697 16.2748L17.6739 21.9121L8.83697 27.5495L0 21.8817L8.83697 16.2443L0 10.6374L8.83697 5L17.6739 10.6374ZM8.79127 29.3626L17.6282 23.7252L26.4652 29.3626L17.6282 35L8.79127 29.3626ZM17.6739 21.8817L26.5109 16.2443L17.6739 10.6374L26.4652 5L35.3022 10.6374L26.4652 16.2748L35.3022 21.9121L26.4652 27.5495L17.6739 21.8817Z" fill="#999999"/>
<path d="M42.2305 10.6369H49.3762C53.9318 10.6369 57.6952 13.2728 57.6952 19.2911V20.5557C57.6952 26.6197 54.1756 29.3469 49.5134 29.3469H42.2305V10.6369ZM46.2223 14.0346V25.934H49.2848C51.875 25.934 53.6119 24.2428 53.6119 20.4795V19.4891C53.6119 15.7258 51.7835 14.0346 49.1477 14.0346H46.2223ZM59.813 14.2174H63.0126L63.5306 17.737C64.1401 15.3449 65.6942 14.0651 68.5128 14.0651H69.5032V18.1027H67.8577C64.6124 18.1027 63.8201 19.2301 63.8201 22.4297V29.3927H59.8739V14.2174H59.813ZM70.2955 22.1098V21.6832C70.2955 16.6095 73.5408 13.8365 77.9593 13.8365C82.4692 13.8365 85.6231 16.6095 85.6231 21.6832V22.1098C85.6231 27.092 82.5606 29.7736 77.9593 29.7736C73.0685 29.7279 70.2955 27.1072 70.2955 22.1098ZM81.5855 22.0641V21.6832C81.5855 18.8645 80.1685 17.1733 77.9136 17.1733C75.7043 17.1733 74.2416 18.7273 74.2416 21.6832V22.0641C74.2416 24.7913 75.6586 26.3454 77.9136 26.3454C80.1685 26.2997 81.5855 24.7913 81.5855 22.0641ZM87.6952 14.2174H90.9862L91.3671 17.0818C92.1594 15.1621 93.8506 13.8365 96.3493 13.8365C100.204 13.8365 102.748 16.6095 102.748 21.7441V22.1707C102.748 27.1529 99.9298 29.7888 96.3493 29.7888C93.9572 29.7888 92.3117 28.707 91.5042 26.9701V34.6339H87.6495L87.6952 14.2174ZM98.7414 22.0641V21.7289C98.7414 18.7121 97.1873 17.219 95.1152 17.219C92.9059 17.219 91.4433 18.9102 91.4433 21.7289V22.0184C91.4433 24.6999 92.8602 26.3911 95.0695 26.3911C97.3397 26.3454 98.7414 24.898 98.7414 22.0641ZM108.584 26.5892L108.249 29.3622H104.866V9.1438H108.721V16.899C109.574 14.9183 111.266 13.8365 113.658 13.8365C117.284 13.8822 119.965 16.381 119.965 21.4089V21.8812C119.965 26.9092 117.421 29.7888 113.566 29.7888C111.022 29.7278 109.376 28.5547 108.584 26.5892ZM115.913 21.8812V21.5003C115.913 18.7273 114.404 17.1733 112.286 17.1733C110.123 17.1733 108.614 18.9102 108.614 21.546V21.8812C108.614 24.6999 110.077 26.3454 112.241 26.3454C114.557 26.3454 115.913 24.898 115.913 21.8812ZM121.657 22.1098V21.6832C121.657 16.6095 124.902 13.8365 129.32 13.8365C133.83 13.8365 136.984 16.6095 136.984 21.6832V22.1098C136.984 27.092 133.876 29.7736 129.32 29.7736C124.43 29.7279 121.657 27.1072 121.657 22.1098ZM132.977 22.0641V21.6832C132.977 18.8645 131.56 17.1733 129.305 17.1733C127.096 17.1733 125.633 18.7273 125.633 21.6832V22.0641C125.633 24.7913 127.05 26.3454 129.305 26.3454C131.575 26.2997 132.977 24.7913 132.977 22.0641ZM142.149 21.5003L136.832 14.2174H141.387L144.45 18.7731L147.558 14.2174H152.068L146.674 21.4546L152.357 29.3622H147.893L144.419 24.3342L141.037 29.3622H136.375L142.149 21.5003Z" fill="#999999"/>
</g>
<defs>
<clipPath id="clip0_3419_802">
<rect width="152" height="40" fill="white"/>
</clipPath>
</defs>
</svg>
