<svg width="97" height="40" viewBox="0 0 97 40" fill="none" xmlns="http://www.w3.org/2000/svg">
<path fill-rule="evenodd" clip-rule="evenodd" d="M61.1171 15.1394C62.3436 13.8643 63.6655 13.2534 65.3799 13.2534C66.0194 13.2534 66.871 13.3384 67.8513 13.5076L65.337 16.8124C65.1241 16.7703 64.8254 16.7282 64.4846 16.7282C62.609 16.7282 61.3729 18.0413 61.3729 20.1171V29.1845H57.7504V13.5505H61.1171V15.1394ZM92.443 13.5505H96.62L90.6874 21.4406L96.62 29.1845H92.3151L88.5647 24.2385L84.8143 29.1845H80.5523L86.4452 21.4279L80.5523 13.5497H84.7293L88.5862 18.6498L92.443 13.5505ZM20.2499 10.4282C20.3418 10.3043 20.4393 10.1729 20.5434 10.0337H20.5426C21.4808 8.76263 23.0148 8 24.5917 8H31.6246V29.1845H13.7663C12.7051 29.1845 12.4296 29.5592 11.5636 30.7375C11.4209 30.9317 11.2622 31.1477 11.0812 31.3874C10.1009 32.6584 8.56691 33.4211 6.99001 33.4211H0V12.2366H17.8154C18.9081 12.2366 19.2506 11.7749 20.2499 10.4282ZM18.6249 23.719H26.0836V13.5505H19.8181C18.7176 13.5505 18.358 14.0159 17.2089 15.5033C17.1569 15.5705 17.1033 15.6398 17.048 15.7113C16.0677 16.9824 14.5758 17.745 12.9568 17.745H5.49811V27.9134H11.8057C12.8867 27.9134 13.1983 27.4962 14.1983 26.1573C14.3021 26.0182 14.4134 25.8693 14.5337 25.7098C15.514 24.3966 17.0051 23.719 18.6249 23.719ZM55.534 13.974C55.534 16.0497 54.4266 17.6179 52.8489 18.5076C55.1511 19.6087 56.0456 21.304 56.0456 23.2526C56.0456 26.5574 53.4884 29.1845 49.7809 29.1845H39.552V8H49.7809C53.1905 8 55.534 10.9234 55.534 13.974ZM49.4822 11.3047H43.1745V16.8124H49.2693C50.5904 16.8124 51.9965 15.7113 51.9965 14.1011C51.9965 12.7879 51.0591 11.3047 49.4822 11.3047ZM43.1745 25.8798H49.2693C50.7612 25.8798 52.4231 24.5658 52.4231 22.9563C52.4231 21.5153 51.102 20.1171 49.4822 20.1171H43.1745V25.8798ZM73.9085 26.1761C75.1875 26.1761 76.3386 25.6256 76.9352 24.693H80.8135C80.004 27.9135 77.191 29.4809 73.9943 29.4809C69.4336 29.4809 66.4934 26.3032 66.4934 21.3882C66.4934 16.3469 69.5615 13.2535 73.9093 13.2535C78.3413 13.2535 81.2822 16.5161 81.2822 21.2611C81.2822 21.8124 81.2401 22.1088 81.0693 22.7443H70.2439C70.2439 24.8201 71.9065 26.1761 73.9085 26.1761ZM77.4039 19.7359C77.4468 17.8293 75.912 16.5582 73.9085 16.5582C71.9065 16.5582 70.286 17.8722 70.286 19.7359H77.4039Z" fill="#999999"/>
</svg>
