<svg width="156" height="40" viewBox="0 0 156 40" fill="none" xmlns="http://www.w3.org/2000/svg">
<path fill-rule="evenodd" clip-rule="evenodd" d="M41.6813 7L28.3813 33H15.8888L21.4549 22.2245H21.2052C16.6132 28.1854 9.76199 32.1095 0 33V22.3737C0 22.3737 6.24497 22.0048 9.91622 18.145H0V7.00021H11.1448V16.1666L11.3949 16.1656L15.949 7.00021H24.3776V16.1085L24.6277 16.1081L29.3526 7H41.6813Z" fill="#999999"/>
<path d="M114.207 30.1303H117.796V9.52795H114.207V30.1303Z" fill="#999999"/>
<path fill-rule="evenodd" clip-rule="evenodd" d="M94.4233 29.92C95.2035 30.2443 95.9967 30.4064 96.8031 30.4064C98.1354 30.4064 99.3274 30.0821 100.379 29.4335C101.431 28.7849 102.246 27.8908 102.825 26.7515C103.403 25.6032 103.692 24.3016 103.692 22.8466C103.692 21.3915 103.394 20.0899 102.798 18.9417C102.202 17.7935 101.374 16.9038 100.313 16.2727C99.253 15.6329 98.0478 15.3173 96.6979 15.3261C95.839 15.3261 95.015 15.4926 94.2262 15.8257C93.4372 16.1588 92.78 16.6321 92.254 17.2456C92.2134 17.2924 92.174 17.3396 92.1357 17.3872V9.54114H88.5332V30.1304H92.1094L92.1022 28.207C92.1948 28.3203 92.2935 28.4311 92.3987 28.5394C92.9684 29.1268 93.6433 29.5869 94.4233 29.92ZM98.1047 26.5936C97.5175 26.9529 96.8469 27.1327 96.0932 27.1327C95.3481 27.1327 94.6644 26.9486 94.0421 26.5805C93.4198 26.2035 92.9245 25.6908 92.5564 25.0422C92.1971 24.3936 92.0174 23.6573 92.0174 22.8334C92.0086 22.0095 92.1839 21.2732 92.5433 20.6246C92.9114 19.9672 93.4066 19.4588 94.0289 19.0995C94.6512 18.7313 95.3393 18.5517 96.0932 18.5604C96.8469 18.5517 97.5175 18.7269 98.1047 19.0863C98.7007 19.4369 99.1565 19.9409 99.4721 20.5983C99.7963 21.2469 99.9585 21.992 99.9585 22.8334C99.9585 23.6748 99.7963 24.4199 99.4721 25.0685C99.1565 25.7171 98.7007 26.2255 98.1047 26.5936Z" fill="#999999"/>
<path d="M46.8828 10.7769H50.9849L54.6544 24.1778L58.558 10.7769H61.9763L66.2099 23.9089L69.7334 10.7769H73.4936L67.9453 30.1302H64.4085L60.1037 17.3012L56.1519 30.1302H52.5757L46.8828 10.7769Z" fill="#999999"/>
<path fill-rule="evenodd" clip-rule="evenodd" d="M79.5512 30.472C78.1225 30.4806 76.8341 30.1651 75.6858 29.5253C74.5464 28.8767 73.648 27.9782 72.9906 26.8301C72.342 25.6818 72.0176 24.3714 72.0176 22.8989C72.0176 21.4702 72.3508 20.1773 73.0168 19.0203C73.6829 17.8633 74.5858 16.9605 75.7252 16.3119C76.8647 15.6633 78.1356 15.339 79.5381 15.339C81.1158 15.339 82.4963 15.6896 83.6796 16.3908C84.8716 17.092 85.7613 18.0868 86.3485 19.3753C86.9445 20.655 87.1593 22.1232 86.9928 23.7797H75.7308C75.7623 24.4397 75.927 25.0402 76.2249 25.581C76.5579 26.177 77.0225 26.6416 77.6184 26.9746C78.2145 27.3077 78.8807 27.4742 79.617 27.4742C80.1779 27.4655 80.6994 27.369 81.1815 27.1851C81.6636 26.9923 82.0711 26.7336 82.4043 26.4094C82.746 26.085 82.9871 25.7169 83.1273 25.305H86.8876C86.6597 26.3129 86.2039 27.2113 85.5202 28.0002C84.8365 28.7802 83.9775 29.3894 82.9433 29.8277C81.9089 30.2659 80.7783 30.4806 79.5512 30.472ZM76.238 20.1642C76.0279 20.5305 75.8825 20.9249 75.8015 21.3475H83.2667C83.2125 20.8136 83.0477 20.3272 82.7723 19.8881C82.4569 19.3709 82.0274 18.9721 81.4839 18.6917C80.9405 18.4024 80.3269 18.2578 79.6432 18.2578C78.9158 18.2578 78.254 18.4243 77.658 18.7574C77.062 19.0905 76.5886 19.5594 76.238 20.1642Z" fill="#999999"/>
<path d="M106.333 15.6417C106.333 14.4672 106.601 13.4241 107.136 12.5126C107.67 11.5922 108.42 10.8779 109.384 10.3695C110.357 9.85236 111.492 9.58504 112.789 9.5675V12.7624C112.184 12.7711 111.667 12.8982 111.238 13.1437C110.817 13.3803 110.493 13.7265 110.265 14.1823C110.055 14.6019 109.942 15.0884 109.925 15.6417H112.71V18.6788H109.923V30.1304H106.333V18.6788H104.02V15.6417H106.333Z" fill="#999999"/>
<path fill-rule="evenodd" clip-rule="evenodd" d="M126.923 30.4454C125.459 30.4454 124.149 30.1254 122.992 29.4856C121.844 28.837 120.941 27.9428 120.284 26.8035C119.635 25.6552 119.311 24.3536 119.311 22.8986C119.311 21.4349 119.635 20.1288 120.284 18.9806C120.941 17.8236 121.844 16.9252 122.992 16.2853C124.149 15.6455 125.459 15.3256 126.923 15.3256C128.396 15.3256 129.71 15.6455 130.867 16.2853C132.033 16.9252 132.94 17.8192 133.589 18.9675C134.238 20.1157 134.566 21.4261 134.575 22.8986C134.566 24.3536 134.238 25.6552 133.589 26.8035C132.949 27.9428 132.046 28.837 130.881 29.4856C129.715 30.1254 128.396 30.4454 126.923 30.4454ZM126.923 27.1453C127.694 27.1453 128.378 26.97 128.974 26.6194C129.57 26.26 130.03 25.7603 130.355 25.1205C130.679 24.4719 130.841 23.7313 130.841 22.8986C130.841 22.0572 130.679 21.3121 130.355 20.6635C130.03 20.0149 129.57 19.5153 128.974 19.1647C128.378 18.8053 127.694 18.6256 126.923 18.6256C126.161 18.6256 125.481 18.8053 124.885 19.1647C124.298 19.5153 123.842 20.0149 123.518 20.6635C123.193 21.3121 123.036 22.0572 123.045 22.8986C123.045 23.7313 123.207 24.4719 123.531 25.1205C123.864 25.7603 124.32 26.26 124.898 26.6194C125.486 26.97 126.161 27.1453 126.923 27.1453Z" fill="#999999"/>
<path d="M138.448 15.6417H134.451L138.777 30.1305H142.274L145.119 20.8765L148.191 30.1305H151.635L155.974 15.6417H152.359L149.898 24.66L147.178 15.6417H143.681L140.974 24.8587L138.448 15.6417Z" fill="#999999"/>
</svg>
