<svg width="126" height="40" viewBox="0 0 126 40" fill="none" xmlns="http://www.w3.org/2000/svg">
<path d="M65.8621 10.7988C65.8621 12.2042 64.73 13.3363 63.3246 13.3363C61.9192 13.3363 60.787 12.2042 60.787 10.7988C60.787 9.39339 61.8801 8.26126 63.3246 8.26126C64.769 8.3003 65.8621 9.43243 65.8621 10.7988ZM55.3996 15.9129C55.3996 16.1471 55.3996 16.5375 55.3996 16.5375C55.3996 16.5375 54.1894 14.976 51.6129 14.976C47.3576 14.976 44.0393 18.2162 44.0393 22.7057C44.0393 27.1562 47.3186 30.4354 51.6129 30.4354C54.2285 30.4354 55.3996 28.8348 55.3996 28.8348V29.4985C55.3996 29.8108 55.6339 30.045 55.9462 30.045H59.1084V15.3664C59.1084 15.3664 56.2195 15.3664 55.9462 15.3664C55.6339 15.3664 55.3996 15.6396 55.3996 15.9129ZM55.3996 25.3213C54.8141 26.1802 53.6429 26.9219 52.2375 26.9219C49.739 26.9219 47.8261 25.3604 47.8261 22.7057C47.8261 20.0511 49.739 18.4895 52.2375 18.4895C53.6039 18.4895 54.8531 19.2703 55.3996 20.0901V25.3213ZM61.4507 15.3664H65.1984V30.045H61.4507V15.3664ZM117.433 14.976C114.856 14.976 113.646 16.5375 113.646 16.5375V8.3003H109.898V30.045C109.898 30.045 112.787 30.045 113.06 30.045C113.373 30.045 113.607 29.7718 113.607 29.4985V28.8348C113.607 28.8348 114.817 30.4354 117.394 30.4354C121.649 30.4354 124.967 27.1562 124.967 22.7057C124.967 18.2553 121.649 14.976 117.433 14.976ZM116.808 26.8829C115.364 26.8829 114.231 26.1411 113.646 25.2823V20.0511C114.231 19.2703 115.481 18.4505 116.808 18.4505C119.307 18.4505 121.219 20.012 121.219 22.6667C121.219 25.3213 119.307 26.8829 116.808 26.8829ZM107.946 21.3393V30.0841H104.198V21.7688C104.198 19.3483 103.418 18.3724 101.31 18.3724C100.177 18.3724 99.0063 18.958 98.2645 19.8168V30.045H94.5168V15.3664H97.4837C97.796 15.3664 98.0303 15.6396 98.0303 15.9129V16.5375C99.1234 15.4054 100.568 14.976 102.012 14.976C103.652 14.976 105.018 15.4444 106.111 16.3814C107.439 17.4745 107.946 18.8799 107.946 21.3393ZM85.4207 14.976C82.8441 14.976 81.6339 16.5375 81.6339 16.5375V8.3003H77.8861V30.045C77.8861 30.045 80.775 30.045 81.0483 30.045C81.3606 30.045 81.5948 29.7718 81.5948 29.4985V28.8348C81.5948 28.8348 82.8051 30.4354 85.3816 30.4354C89.6369 30.4354 92.9552 27.1562 92.9552 22.7057C92.9942 18.2553 89.6759 14.976 85.4207 14.976ZM84.796 26.8829C83.3516 26.8829 82.2195 26.1411 81.6339 25.2823V20.0511C82.2195 19.2703 83.4687 18.4505 84.796 18.4505C87.2945 18.4505 89.2075 20.012 89.2075 22.6667C89.2075 25.3213 87.2945 26.8829 84.796 26.8829ZM74.6459 14.976C75.778 14.976 76.3636 15.1712 76.3636 15.1712V18.6456C76.3636 18.6456 73.2405 17.5916 71.2885 19.8168V30.0841H67.5408V15.3664C67.5408 15.3664 70.4297 15.3664 70.703 15.3664C71.0153 15.3664 71.2495 15.6396 71.2495 15.9129V16.5375C71.9522 15.7177 73.4747 14.976 74.6459 14.976ZM35.724 28.7177C35.5288 28.2492 35.3336 27.7417 35.1384 27.3123C34.8261 26.6096 34.5138 25.9459 34.2405 25.3213L34.2015 25.2823C31.5078 19.4264 28.6189 13.4925 25.5738 7.63664L25.4567 7.4024C25.1444 6.81682 24.8321 6.19219 24.5198 5.56757C24.1294 4.86486 23.739 4.12312 23.1144 3.42042C21.8651 1.85886 20.0693 1 18.1564 1C16.2045 1 14.4477 1.85886 13.1594 3.34234C12.5738 4.04505 12.1444 4.78679 11.754 5.48949C11.4417 6.11411 11.1294 6.73874 10.8171 7.32432L10.6999 7.55856C7.69394 13.4144 4.76602 19.3483 2.07232 25.2042L2.03328 25.2823C1.76001 25.9069 1.4477 26.5706 1.13539 27.2733C0.94019 27.7027 0.744995 28.1712 0.5498 28.6787C0.0422923 30.1231 -0.113864 31.4895 0.0813313 32.8949C0.510761 35.8228 2.46271 38.2823 5.15641 39.3754C6.17142 39.8048 7.22548 40 8.31857 40C8.63088 40 9.02127 39.961 9.33358 39.9219C10.6219 39.7658 11.9492 39.3363 13.2375 38.5946C14.8381 37.6967 16.3606 36.4084 18.0783 34.5345C19.796 36.4084 21.3576 37.6967 22.9192 38.5946C24.2075 39.3363 25.5348 39.7658 26.8231 39.9219C27.1354 39.961 27.5258 40 27.8381 40C28.9312 40 30.0243 39.8048 31.0003 39.3754C33.733 38.2823 35.6459 35.7838 36.0753 32.8949C36.3876 31.5285 36.2315 30.1622 35.724 28.7177ZM18.1174 30.7477C16.0093 28.0931 14.6429 25.5946 14.1744 23.4865C13.9792 22.5886 13.9402 21.8078 14.0573 21.1051C14.1354 20.4805 14.3696 19.9339 14.6819 19.4655C15.4237 18.4114 16.6729 17.7477 18.1174 17.7477C19.5618 17.7477 20.8501 18.3724 21.5528 19.4655C21.8651 19.9339 22.0994 20.4805 22.1774 21.1051C22.2945 21.8078 22.2555 22.6276 22.0603 23.4865C21.5918 25.5556 20.2255 28.0541 18.1174 30.7477ZM33.6939 32.5826C33.4207 34.6126 32.0543 36.3694 30.1414 37.1502C29.2045 37.5405 28.1894 37.6577 27.1744 37.5405C26.1984 37.4234 25.2225 37.1111 24.2075 36.5255C22.8021 35.7447 21.3966 34.5345 19.757 32.7387C22.3336 29.5766 23.8951 26.6877 24.4807 24.1111C24.754 22.9009 24.793 21.8078 24.6759 20.7928C24.5198 19.8168 24.1684 18.9189 23.6219 18.1381C22.4117 16.3814 20.3816 15.3664 18.1174 15.3664C15.8531 15.3664 13.8231 16.4204 12.6129 18.1381C12.0663 18.9189 11.715 19.8168 11.5588 20.7928C11.4027 21.8078 11.4417 22.9399 11.754 24.1111C12.3396 26.6877 13.9402 29.6156 16.4777 32.7778C14.8771 34.5736 13.4327 35.7838 12.0273 36.5646C11.0123 37.1502 10.0363 37.4625 9.06031 37.5796C8.00626 37.6967 6.99124 37.5405 6.09334 37.1892C4.18043 36.4084 2.81406 34.6517 2.54079 32.6216C2.42367 31.6456 2.50175 30.6697 2.89214 29.5766C3.00926 29.1862 3.20445 28.7958 3.39965 28.3273C3.67292 27.7027 3.98524 27.039 4.29755 26.3754L4.33659 26.2973C7.03028 20.4805 9.91917 14.5465 12.9252 8.76877L13.0423 8.53453C13.3546 7.94895 13.6669 7.32432 13.9792 6.73874C14.2915 6.11411 14.6429 5.52853 15.0723 5.02102C15.8921 4.08408 16.9852 3.57658 18.1954 3.57658C19.4057 3.57658 20.4987 4.08408 21.3186 5.02102C21.748 5.52853 22.0994 6.11411 22.4117 6.73874C22.724 7.32432 23.0363 7.94895 23.3486 8.53453L23.4657 8.76877C26.4327 14.5856 29.3216 20.5195 32.0153 26.3363V26.3754C32.3276 27 32.6009 27.7027 32.9132 28.3273C33.1084 28.7958 33.3036 29.1862 33.4207 29.5766C33.733 30.5916 33.8501 31.5676 33.6939 32.5826Z" fill="#999999"/>
</svg>
