<svg width="67" height="40" viewBox="0 0 67 40" fill="none" xmlns="http://www.w3.org/2000/svg">
<path d="M54.8335 30.1061C54.786 30.1061 54.7404 30.0873 54.7068 30.0537C54.6733 30.0201 54.6544 29.9746 54.6544 29.9271V8.34615C54.6544 8.26145 54.7141 8.18801 54.7969 8.17082L58.5377 7.39195C58.5638 7.38651 58.5908 7.38696 58.6167 7.39327C58.6426 7.39958 58.6668 7.41158 58.6874 7.42841C58.7081 7.44524 58.7247 7.46647 58.7361 7.49055C58.7476 7.51463 58.7535 7.54095 58.7534 7.5676V29.9271C58.7534 29.9746 58.7345 30.0201 58.701 30.0537C58.6674 30.0873 58.6218 30.1061 58.5743 30.1061H54.8335ZM7.81362 30.5628C6.31934 30.5628 4.98509 30.1971 3.81086 29.4664C2.63663 28.7353 1.70806 27.7358 1.02483 26.4675C0.341611 25.1992 0 23.759 0 22.1466C0 20.5345 0.341611 19.1049 1.02483 17.8581C1.70806 16.5895 2.63663 15.6009 3.81086 14.8915C4.98509 14.1604 6.31934 13.7951 7.81362 13.7951C9.00941 13.7951 10.0555 14.0207 10.9519 14.4723C11.6707 14.834 12.2799 15.3131 12.779 15.9101C12.8922 16.0454 13.1297 15.9688 13.1297 15.7922V7.95797C13.1297 7.87327 13.1891 7.80014 13.2722 7.78295L17.0131 7.00377C17.0391 6.99834 17.066 6.99878 17.0919 7.00505C17.1177 7.01132 17.1418 7.02327 17.1625 7.04003C17.1831 7.05679 17.1998 7.07794 17.2112 7.10195C17.2227 7.12595 17.2287 7.1522 17.2287 7.1788V29.9961C17.2287 30.0436 17.2098 30.0892 17.1763 30.1228C17.1427 30.1564 17.0971 30.1752 17.0496 30.1752H13.7254C13.6839 30.1752 13.6437 30.1607 13.6116 30.1344C13.5796 30.108 13.5577 30.0713 13.5498 30.0305L13.2091 28.2912C13.1788 28.1371 12.9769 28.0915 12.8768 28.2121C12.3996 28.7881 11.8008 29.3029 11.08 29.7561C10.2474 30.2937 9.1585 30.5628 7.81362 30.5628ZM8.67843 26.951C10.0021 26.951 11.08 26.5103 11.9126 25.6289C12.7665 24.7263 13.1938 23.5761 13.1938 22.1788C13.1938 20.7814 12.7665 19.6421 11.9126 18.7608C11.08 17.8581 10.0021 17.4065 8.67843 17.4065C7.37606 17.4065 6.29809 17.8472 5.4439 18.7286C4.58972 19.61 4.1631 20.7492 4.1631 22.1466C4.1631 23.544 4.59003 24.6938 5.4439 25.5971C6.29809 26.4994 7.37606 26.951 8.67843 26.951ZM27.2236 30.565C25.6224 30.565 24.2028 30.2212 22.9645 29.5333C21.7262 28.8453 20.7548 27.878 20.0504 26.6313C19.3459 25.3842 18.9937 23.944 18.9937 22.3103C18.9937 20.6551 19.3353 19.1824 20.0185 17.8928C20.723 16.603 21.6837 15.6031 22.9005 14.894C24.1388 14.1629 25.5905 13.7976 27.2558 13.7976C28.8144 13.7976 30.1912 14.1414 31.3867 14.8293C32.5825 15.5172 33.511 16.4633 34.1727 17.6672C34.8559 18.8492 35.1975 20.1713 35.1975 21.6334C35.1975 21.8697 35.1869 22.1169 35.1657 22.3747C35.1657 22.5813 35.1588 22.7948 35.145 23.0154C35.1421 23.0605 35.1221 23.1027 35.0891 23.1334C35.0561 23.1642 35.0126 23.1813 34.9675 23.1811H23.2524C23.2279 23.1809 23.2037 23.1858 23.1812 23.1956C23.1588 23.2054 23.1386 23.2197 23.1221 23.2377C23.1055 23.2558 23.093 23.277 23.0851 23.3002C23.0773 23.3234 23.0745 23.348 23.0767 23.3724C23.1911 24.5282 23.6128 25.4424 24.3416 26.1153C25.1314 26.8247 26.0815 27.1795 27.192 27.1795C28.0243 27.1795 28.7182 26.9966 29.2733 26.6313C29.8165 26.2665 30.2265 25.8068 30.5047 25.2511C30.5359 25.1886 30.5991 25.1479 30.6688 25.1479H34.4774C34.5052 25.1477 34.5325 25.154 34.5573 25.1664C34.5821 25.1788 34.6036 25.197 34.62 25.2193C34.6365 25.2416 34.6473 25.2676 34.6518 25.2949C34.6562 25.3223 34.6541 25.3503 34.6456 25.3767C34.3408 26.2981 33.863 27.1463 33.2123 27.9208C32.529 28.7378 31.6748 29.3826 30.6503 29.8555C29.6471 30.3287 28.5047 30.565 27.2236 30.565ZM27.2558 17.1512C26.2525 17.1512 25.3664 17.4412 24.5979 18.0216C23.8765 18.5461 23.3996 19.3359 23.1674 20.3907C23.1619 20.4163 23.1623 20.4427 23.1685 20.4681C23.1747 20.4935 23.1865 20.5172 23.203 20.5375C23.2196 20.5577 23.2405 20.5739 23.2642 20.585C23.2879 20.596 23.3138 20.6016 23.3399 20.6013H30.8441C30.9472 20.6013 31.0298 20.5141 31.0191 20.4116C30.9222 19.4468 30.5434 18.6717 29.8815 18.0863C29.177 17.4628 28.3019 17.1512 27.2558 17.1512ZM45.0555 30.5653C43.4543 30.5653 42.0348 30.2215 40.7965 29.5336C39.5582 28.8457 38.5868 27.8783 37.8823 26.6316C37.1778 25.3848 36.8256 23.9443 36.8256 22.3107C36.8256 20.6554 37.1672 19.1827 37.8501 17.8931C38.5549 16.6033 39.5153 15.6034 40.7324 14.8943C41.9707 14.1632 43.4222 13.7979 45.0874 13.7979C46.6461 13.7979 48.0231 14.1417 49.2186 14.8296C50.4141 15.5175 51.3427 16.4636 52.0046 17.6675C52.6878 18.8495 53.0295 20.1716 53.0295 21.6337C53.0295 21.87 53.0188 22.1172 52.9973 22.375C52.9973 22.5816 52.9904 22.7954 52.977 23.0158C52.9739 23.0608 52.9539 23.1029 52.9209 23.1337C52.888 23.1644 52.8445 23.1815 52.7994 23.1814H41.0843C41.0598 23.1812 41.0356 23.1862 41.0131 23.1959C40.9907 23.2057 40.9705 23.22 40.9539 23.238C40.9373 23.256 40.9247 23.2773 40.9169 23.3005C40.909 23.3237 40.9061 23.3483 40.9084 23.3727C41.0227 24.5285 41.4447 25.4427 42.1735 26.1156C42.9633 26.8251 43.9135 27.1798 45.0233 27.1798C45.8559 27.1798 46.5498 26.997 47.1052 26.6316C47.6481 26.2668 48.0584 25.8071 48.3363 25.2514C48.3675 25.1889 48.4307 25.1483 48.5007 25.1483H52.309C52.4291 25.1483 52.515 25.2633 52.4772 25.377C52.1728 26.2984 51.6949 27.1467 51.0439 27.9211C50.3606 28.7381 49.5068 29.3832 48.4819 29.8558C47.4787 30.329 46.3363 30.5653 45.0555 30.5653ZM45.0874 17.1515C44.0841 17.1515 43.1981 17.4415 42.4295 18.0219C41.7085 18.5467 41.2315 19.3362 40.999 20.391C40.9936 20.4166 40.9939 20.443 41.0001 20.4684C41.0063 20.4939 41.0181 20.5175 41.0347 20.5378C41.0512 20.558 41.0721 20.5742 41.0958 20.5853C41.1195 20.5964 41.1454 20.602 41.1715 20.6017H48.676C48.7792 20.6017 48.8614 20.5145 48.8511 20.4119C48.7545 19.4471 48.375 18.672 47.7134 18.0866C47.0089 17.4631 46.1338 17.1515 45.0874 17.1515Z" fill="#999999"/>
<path d="M64.1286 30.1108C65.6529 30.1108 66.8884 28.8665 66.8884 27.3319C66.8884 25.7973 65.6529 24.5531 64.1286 24.5531C62.6046 24.5531 61.3691 25.797 61.3691 27.3316C61.3691 28.8662 62.6046 30.1105 64.1286 30.1105V30.1108Z" fill="#999999"/>
</svg>
