<svg width="113" height="40" viewBox="0 0 113 40" fill="none" xmlns="http://www.w3.org/2000/svg">
<path d="M79.2507 11.1202H76.8672L76.8781 28.8874H86.5325V26.6897H79.2616L79.2507 11.1202Z" fill="#999999"/>
<path d="M95.7222 25.7702C95.1208 26.3935 94.1259 27.0167 92.7701 27.0167C90.9551 27.0167 90.2226 26.1201 90.2226 24.9502C90.2226 23.1899 91.4471 22.348 94.0493 22.348C94.5414 22.348 95.3286 22.4027 95.7331 22.4792V25.7702H95.7222ZM93.2512 15.0006C91.3269 15.0006 89.5556 15.6785 88.178 16.8265L89.0199 18.2916C89.993 17.7231 91.1847 17.1545 92.9013 17.1545C94.8584 17.1545 95.7222 18.1604 95.7222 19.8442V20.708C95.3395 20.6314 94.5523 20.5768 94.0712 20.5768C89.8946 20.5768 87.7734 22.0419 87.7734 25.1033C87.7734 27.8476 89.4572 29.2253 92.0048 29.2253C93.7213 29.2253 95.3723 28.438 95.9409 27.1588L96.3782 28.8973H98.062V19.8005C98.051 16.9249 96.8046 15.0006 93.2512 15.0006Z" fill="#999999"/>
<path d="M105.755 27.0978C104.858 27.0978 104.071 26.9885 103.48 26.7151V19.3568V18.504C104.29 17.8261 105.295 17.3341 106.575 17.3341C108.882 17.3341 109.767 18.9632 109.767 21.5982C109.767 25.3375 108.335 27.0978 105.755 27.0978ZM106.761 15.0052C104.628 15.0052 103.48 16.4594 103.48 16.4594V14.1633L103.469 11.1238H102.398H101.141L101.152 28.4536C102.321 28.9456 103.918 29.208 105.656 29.208C110.106 29.208 112.249 26.3653 112.249 21.4561C112.238 17.5746 110.259 15.0052 106.761 15.0052Z" fill="#999999"/>
<path d="M53.2966 13.0479C55.4068 13.0479 56.7735 13.7476 57.6591 14.4583L58.6869 12.6761C57.2983 11.4516 55.4177 10.7955 53.4059 10.7955C48.3327 10.7955 44.7793 13.8898 44.7793 20.1329C44.7793 26.6712 48.617 29.2187 53.0014 29.2187C55.199 29.2187 57.0687 28.7048 58.2933 28.1909L58.2386 21.2043V20.3843V19.0067H51.7331V21.2043H55.8879L55.9425 26.5072C55.3958 26.7805 54.4556 26.9992 53.1763 26.9992C49.6557 26.9992 47.294 24.7796 47.294 20.111C47.2831 15.3549 49.7213 13.0479 53.2966 13.0479Z" fill="#999999"/>
<path d="M70.0828 11.1177H67.7539L67.7648 14.1026V15.3271V16.0378V17.2842V24.3911V24.413C67.7648 27.2885 69.0113 29.2128 72.5647 29.2128C73.0567 29.2128 73.5378 29.1691 73.997 29.0816V26.9933C73.6581 27.048 73.2973 27.0698 72.9146 27.0698C70.9575 27.0698 70.0937 26.0639 70.0937 24.3802V17.2733H73.997V15.3271H70.0937L70.0828 11.1177Z" fill="#999999"/>
<path d="M61.834 28.8877H64.1628V15.33H61.834V28.8877Z" fill="#999999"/>
<path d="M61.834 13.4605H64.1628V11.1316H61.834V13.4605Z" fill="#999999"/>
<path d="M19.4529 37L26.2535 16.0815H12.6621L19.4529 37Z" fill="#999999"/>
<path d="M3.13993 16.0815L1.069 22.4368C0.881593 23.0139 1.08397 23.6509 1.57861 24.0106L19.4561 36.9999L3.13993 16.0815Z" fill="#CCCCCC"/>
<path d="M3.14258 16.0816H12.668L8.5685 3.4834C8.35868 2.83887 7.4443 2.83887 7.22694 3.4834L3.14258 16.0816Z" fill="#999999"/>
<path d="M35.7811 16.0815L37.8446 22.4368C38.032 23.0139 37.8296 23.6509 37.3349 24.0106L19.4551 37L35.7811 16.0815Z" fill="#CCCCCC"/>
<path d="M35.7851 16.0816H26.2598L30.3517 3.4834C30.5615 2.83887 31.4759 2.83887 31.6932 3.4834L35.7851 16.0816Z" fill="#999999"/>
<path d="M19.4551 37L26.2557 16.0815H35.781L19.4551 37Z" fill="#B3B3B3"/>
<path d="M19.4587 37L3.14258 16.0815H12.668L19.4587 37Z" fill="#B3B3B3"/>
</svg>
