<svg width="129" height="40" viewBox="0 0 129 40" fill="none" xmlns="http://www.w3.org/2000/svg">
<path d="M25.9862 13.4212C21.3088 13.4212 17.6541 16.9718 17.6541 21.7252C17.6541 26.4785 21.2165 29.9988 25.9862 29.9988C30.7559 29.9988 34.3802 26.4178 34.3802 21.6948C34.3802 17.0022 30.8178 13.4212 25.9862 13.4212ZM26.0177 26.5732C23.3541 26.5732 21.4023 24.5045 21.4023 21.7264C21.4023 18.9167 23.3226 16.8491 25.9862 16.8491C28.6813 16.8491 30.632 18.9482 30.632 21.7264C30.632 24.5045 28.6813 26.5732 26.0177 26.5732ZM35.4017 17.0338H37.7252V29.6914H41.4418V13.7297H35.4017V17.0338ZM8.30052 16.848C10.2523 16.848 11.8009 18.0518 12.3888 19.8423H16.3229C15.6099 16.0146 12.4508 13.4212 8.33208 13.4212C3.65471 13.4212 0 16.9718 0 21.7264C0 26.4809 3.56237 30 8.33208 30C12.3584 30 15.5795 27.4065 16.2925 23.5473H12.3888C11.8313 25.3378 10.2827 26.5732 8.33091 26.5732C5.63575 26.5732 3.74704 24.5045 3.74704 21.7264C3.74821 18.9167 5.60653 16.848 8.30052 16.848ZM106.02 20.1824L103.295 19.7815C101.994 19.5969 101.065 19.1644 101.065 18.1453C101.065 17.0338 102.273 16.4786 103.914 16.4786C105.711 16.4786 106.857 17.25 107.105 18.5158H110.698C110.295 15.3052 107.817 13.4223 104.008 13.4223C100.074 13.4223 97.4721 15.4291 97.4721 18.2692C97.4721 20.9854 99.1761 22.5609 102.613 23.0541L105.339 23.455C106.671 23.6396 107.415 24.1656 107.415 25.1532C107.415 26.4189 106.114 26.9437 104.317 26.9437C102.118 26.9437 100.879 26.0484 100.693 24.6903H97.0385C97.3797 27.8086 99.826 30 104.286 30C108.344 30 111.038 28.1475 111.038 24.9673C111.038 22.1272 109.087 20.6453 106.02 20.1824ZM39.5835 7.15428C38.2207 7.15428 37.1981 8.14188 37.1981 9.49997C37.1981 10.8581 38.2196 11.8457 39.5835 11.8457C40.9463 11.8457 41.9689 10.8581 41.9689 9.49997C41.9689 8.14188 40.9463 7.15428 39.5835 7.15428ZM94.1271 19.1948C94.1271 15.7376 92.021 13.4223 87.561 13.4223C83.3488 13.4223 80.9949 15.553 80.5298 18.8255H84.216C84.4019 17.5597 85.393 16.5102 87.4991 16.5102C89.3889 16.5102 90.3181 17.3435 90.3181 18.3627C90.3181 19.6904 88.6141 20.0293 86.508 20.2455C83.6585 20.5541 80.1277 21.5417 80.1277 25.2467C80.1277 28.1183 82.2654 29.9696 85.6723 29.9696C88.3359 29.9696 90.0084 28.8581 90.8452 27.098C90.9691 28.6723 92.146 29.6914 93.7881 29.6914H95.9562V26.3885H94.1283V19.1948H94.1271ZM90.4724 23.2083C90.4724 25.339 88.6141 26.9133 86.3525 26.9133C84.9582 26.9133 83.7812 26.3266 83.7812 25.0924C83.7812 23.5181 85.6711 23.0856 87.4056 22.901C89.078 22.7467 90.0072 22.3762 90.4724 21.6656V23.2083ZM70.7426 13.4212C68.6669 13.4212 66.9324 14.286 65.6935 15.7365V7H61.9769V29.6914H65.6316V27.5924C66.8705 29.1047 68.6365 30 70.7426 30C75.2026 30 78.5791 26.4809 78.5791 21.7264C78.5791 16.9718 75.1406 13.4212 70.7426 13.4212ZM70.1851 26.5732C67.5215 26.5732 65.5697 24.5045 65.5697 21.7264C65.5697 18.9482 67.5519 16.8491 70.2155 16.8491C72.9106 16.8491 74.7993 18.9178 74.7993 21.7264C74.7993 24.5045 72.8487 26.5732 70.1851 26.5732ZM53.0873 13.4212C50.6715 13.4212 49.0913 14.4088 48.1622 15.7984V13.7297H44.4759V29.6903H48.1926V21.0158C48.1926 18.5766 49.7412 16.848 52.0331 16.848C54.1708 16.848 55.502 18.3603 55.502 20.5529V29.6914H59.2186V20.2759C59.2198 16.2612 57.1452 13.4212 53.0873 13.4212ZM128.755 21.2016C128.755 16.6329 125.41 13.4223 120.919 13.4223C116.149 13.4223 112.648 17.0034 112.648 21.7264C112.648 26.6971 116.397 30 120.98 30C124.853 30 127.888 27.7151 128.662 24.4741H124.789C124.232 25.8942 122.869 26.6971 121.041 26.6971C118.656 26.6971 116.859 25.2151 116.457 22.6216H128.754V21.2016H128.755ZM116.675 19.9662C117.264 17.7432 118.936 16.6633 120.857 16.6633C122.963 16.6633 124.573 17.8671 124.945 19.9662H116.675Z" fill="#999999"/>
</svg>
