<svg width="114" height="24" viewBox="0 0 114 24" fill="none" xmlns="http://www.w3.org/2000/svg">
<path d="M0.697266 0.206055L23.4199 0.218041L23.4078 23.1107L0.68519 23.0987L0.697266 0.206055Z" fill="#FF5A00"/>
<path d="M64.3301 4.77347C64.5378 4.79247 64.5755 5.03804 64.5943 5.18915C64.6505 5.9636 64.669 6.71915 64.6686 7.49357C64.706 8.23023 64.7056 8.94799 64.7052 9.68463C65.121 9.36375 65.5178 9.02397 66.009 8.83535C66.7836 8.49577 67.728 8.49626 68.4833 8.89332C69.2953 9.30929 69.8615 10.1029 70.1444 10.953C70.4084 11.7654 70.4835 12.6343 70.4264 13.4842C70.3503 14.4852 70.0854 15.4862 69.4994 16.2981C69.1591 16.7701 68.7056 17.1854 68.1388 17.3929C67.232 17.7135 66.231 17.5996 65.4191 17.0892C65.1736 16.938 64.9471 16.7112 64.7205 16.5222C64.6259 16.8244 64.5502 17.1077 64.4556 17.4098C64.0212 17.4096 63.6056 17.4471 63.1712 17.3714C63.3416 16.6915 63.342 15.9737 63.3612 15.2749C63.4003 12.8005 63.3638 10.3261 63.3462 7.87064C63.2901 6.9073 63.3661 5.94404 63.1966 4.99953C63.5934 4.88641 63.9523 4.77327 64.3301 4.77347ZM67.5006 9.87499C67.1229 9.79924 66.7451 9.79904 66.3673 9.83661C65.6873 9.9307 65.1393 10.4026 64.7046 10.8935C64.6856 11.0635 64.7044 11.2146 64.6855 11.3846L64.6834 15.3133C64.6644 15.4455 64.7777 15.54 64.8721 15.6157C65.5329 16.2582 66.5149 16.5609 67.4217 16.3348C67.8561 16.2217 68.2341 15.9385 68.442 15.542C68.7634 14.9944 68.8771 14.3522 68.9341 13.729C68.9721 13.2568 69.029 12.7657 68.9726 12.2935C68.954 11.7457 68.841 11.1601 68.5579 10.6877C68.3315 10.291 67.9539 9.96967 67.5006 9.87499ZM73.1318 5.1181C73.3963 5.0238 73.6985 5.04285 73.9629 5.15632C74.2084 5.30756 74.3782 5.53431 74.4914 5.7988C74.6611 6.36554 74.2075 7.0075 73.6219 7.08275C73.1685 7.13917 72.6776 6.87448 72.5456 6.42109C72.357 5.92989 72.6406 5.32562 73.1318 5.1181ZM32.8425 6.13571C33.485 5.70162 34.2407 5.36202 35.034 5.36244C35.8462 5.34398 36.6772 5.40109 37.4137 5.76035C37.7158 5.89273 38.018 6.044 38.2823 6.2708C38.0932 6.5918 37.8475 6.87499 37.6207 7.1582C37.3186 6.98804 37.0354 6.79901 36.7143 6.68551C35.9212 6.40177 35.0146 6.34462 34.2211 6.66531C33.5599 6.92939 33.0118 7.43909 32.6715 8.06223C32.4446 8.49654 32.2366 8.96864 32.1419 9.45968C32.0661 9.93185 32.0281 10.4229 32.0089 10.914C31.9897 11.5562 31.9516 12.2173 31.989 12.8595C32.1019 13.7662 32.4036 14.673 33.0265 15.3533C33.5551 15.9769 34.3482 16.3362 35.1604 16.4122C35.5759 16.4313 36.0103 16.4315 36.4259 16.3373C36.936 16.2242 37.3705 15.96 37.8429 15.7525C38.1072 16.0171 38.3525 16.3194 38.579 16.6406C38.2389 16.8293 37.88 17.018 37.5021 17.1689C36.5197 17.5651 35.4053 17.5834 34.3665 17.4695C33.611 17.318 32.9124 16.921 32.3271 16.4296C31.6474 15.8437 31.1567 15.069 30.8739 14.2189C30.6664 13.6521 30.5723 13.0476 30.5159 12.4621C30.4973 12.0087 30.4408 11.5743 30.4977 11.121C30.5171 10.271 30.6497 9.44 30.9901 8.64688C31.3684 7.66488 31.9733 6.73968 32.8425 6.13571Z" fill="black"/>
<path d="M7.43551 5.91386C7.52997 5.89502 7.64332 5.85731 7.73776 5.85736C8.22886 5.83873 8.71994 5.87676 9.21103 5.89591C9.28659 5.87706 9.32433 5.95263 9.34318 6.00931C10.079 7.53965 10.8148 9.08888 11.5696 10.6192C11.7394 10.9404 11.8714 11.2616 12.0602 11.5639C12.2114 11.3184 12.3438 11.0541 12.4761 10.7897C13.327 9.14688 14.1211 7.50401 14.9531 5.86116C15.5008 5.88034 16.0486 5.82396 16.5963 5.91869C16.5017 6.23975 16.3127 6.50408 16.1803 6.80623C15.0837 8.90225 13.9682 10.9983 12.8716 13.0943C12.8337 13.1698 12.8148 13.2643 12.8148 13.3587C12.814 14.8509 12.8132 16.3619 12.8124 17.8541C12.2835 17.8538 11.7546 17.8536 11.2258 17.8533C11.2265 16.3989 11.2273 14.9256 11.2281 13.4712C11.2282 13.3201 11.2471 13.1501 11.1528 12.9989C10.1338 11.0907 9.13374 9.18244 8.11479 7.25529C7.88837 6.80185 7.64305 6.36729 7.43551 5.91386Z" fill="#FFFEFE"/>
<path d="M95.3058 6.62275C95.7403 6.49076 96.1937 6.37767 96.647 6.30236C96.571 7.1334 96.5139 7.96446 96.4946 8.81442C97.1934 8.83368 97.9112 8.83406 98.6101 8.85332C98.4966 9.17436 98.3642 9.49539 98.2129 9.79753C97.6085 9.79721 97.023 9.7969 96.4185 9.79658C96.4181 10.571 96.4177 11.3454 96.4173 12.1198C96.417 12.7243 96.4544 13.3476 96.4352 13.952C96.4537 14.6509 96.4156 15.3497 96.4908 16.0298C96.5095 16.3131 96.7739 16.521 97.0194 16.5967C97.4537 16.6914 97.9071 16.6538 98.3227 16.5596C98.4359 16.8052 98.4924 17.0886 98.4734 17.353C98.0955 17.5606 97.6422 17.5981 97.2077 17.6357C96.6033 17.6542 95.9233 17.5594 95.4891 17.087C95.1304 16.7468 95.1685 16.2179 95.1121 15.7646C95.0748 14.7824 95.0942 13.7813 95.0759 12.7991C95.0764 11.798 95.0769 10.7781 95.0775 9.77698C94.6997 9.77678 94.3219 9.77658 93.9442 9.77638C93.9254 9.45527 93.9256 9.11528 93.9447 8.79419C94.3224 8.79439 94.6813 8.79458 95.0591 8.79478C95.1917 8.07709 95.1921 7.34044 95.3058 6.62275ZM43.6641 8.57878C44.023 8.59786 44.3819 8.57916 44.7218 8.69267C45.515 8.95753 46.1758 9.50564 46.5909 10.2236C46.9495 10.8471 47.1947 11.5461 47.2132 12.2639C47.2504 13.2272 47.2877 14.2283 46.985 15.1537C46.7012 16.0224 46.0964 16.7965 45.265 17.2305C44.4526 17.6456 43.4704 17.7395 42.6017 17.4935C41.8085 17.2853 41.1288 16.7561 40.6758 16.0759C40.1662 15.339 39.9967 14.4511 39.9783 13.5634C39.9598 12.7134 39.9414 11.8445 40.2251 11.0325C40.49 10.2393 41.0004 9.50291 41.7184 9.04996C42.0396 8.84236 42.3985 8.67256 42.7763 8.5972C43.0786 8.55959 43.3808 8.57863 43.6641 8.57878ZM42.9835 9.67395C42.5302 9.78704 42.0956 10.0512 41.8498 10.4478C41.4907 11.0331 41.4336 11.732 41.3955 12.393C41.3575 12.8841 41.395 13.3752 41.4325 13.8663C41.5077 14.4519 41.6207 15.0753 41.9038 15.6043C42.2057 16.1711 42.8478 16.4548 43.471 16.4929C44.0566 16.531 44.6988 16.3802 45.1146 15.9271C45.4548 15.5495 45.6439 15.0774 45.7198 14.5675C45.8145 13.9442 45.796 13.3209 45.7774 12.6976C45.7589 12.0553 45.7026 11.3753 45.4384 10.7708C45.2875 10.3929 45.0044 10.0717 44.6456 9.88259C44.1547 9.58012 43.5314 9.54202 42.9835 9.67395ZM49.576 8.86523C49.9727 8.73322 50.3694 8.63898 50.785 8.56365C50.9548 8.9415 51.049 9.3571 51.0866 9.77267C51.37 9.62171 51.5779 9.39515 51.8424 9.2253C52.4282 8.79118 53.1461 8.52712 53.8827 8.56528C54.0527 8.58426 54.2038 8.62212 54.3548 8.69775C54.6003 8.8301 54.8647 8.96246 55.0723 9.15145C55.28 9.35933 55.431 9.62385 55.5819 9.88836C55.922 9.73744 56.1677 9.47313 56.47 9.26552C56.9802 8.90691 57.5659 8.62389 58.2081 8.56756C58.7937 8.51121 59.3791 8.7004 59.8133 9.09729C60.0021 9.28627 60.2098 9.47526 60.3041 9.72086C60.3984 9.96646 60.4361 10.2309 60.4548 10.4954C60.5485 11.8743 60.4911 13.272 60.5471 14.6508C60.5466 15.5764 60.5461 16.483 60.5456 17.4085C60.0923 17.4083 59.639 17.427 59.1668 17.4078C59.1675 16.029 59.1682 14.6501 59.1689 13.2713C59.1694 12.3835 59.1888 11.4958 59.1137 10.608C59.0761 10.3246 58.9251 10.0601 58.6985 9.89001C58.4342 9.71987 58.0942 9.73858 57.7919 9.75731C57.2442 9.81369 56.8095 10.1534 56.3938 10.4743C56.2049 10.6442 55.997 10.7952 55.808 10.9651C55.7514 11.0029 55.7702 11.0973 55.7702 11.154C55.7691 13.2317 55.768 15.3094 55.7669 17.3871C55.3136 17.3869 54.8602 17.3867 54.4069 17.3864L54.4095 12.5321C54.4097 12.1355 54.4099 11.7388 54.3912 11.361C54.3725 10.9644 54.4105 10.5299 54.2218 10.171C53.9387 9.77417 53.391 9.69832 52.9565 9.81143C52.2764 9.98106 51.6718 10.3963 51.1616 10.8682C51.086 10.9249 51.0859 11.0193 51.0859 11.1137C51.0848 13.2103 51.0837 15.3069 51.0826 17.4036C50.6859 17.4222 50.2892 17.422 49.8926 17.4029C49.8559 15.2685 49.876 13.1153 49.8204 10.962C49.8018 10.4709 49.8021 9.97976 49.7457 9.50752C49.6891 9.28083 49.6137 9.07302 49.576 8.86523ZM72.8087 8.80193C73.2431 8.74549 73.6776 8.67017 74.1121 8.57595C74.1681 9.78484 74.1486 10.9937 74.1479 12.2025C74.147 13.9403 74.1461 15.678 74.1452 17.4157C73.6919 17.4344 73.2385 17.4341 72.7852 17.415C72.7677 14.9217 72.7878 12.4474 72.7892 9.95411C72.8083 9.57635 72.7896 9.17969 72.8087 8.80193ZM90.3182 8.64117C91.2436 8.81165 92.0365 9.66205 92.0549 10.6254C92.1108 12.0609 92.0345 13.4964 92.0526 14.9319L92.0524 15.3663C92.0522 15.6497 92.071 15.933 92.1464 16.2164C92.2029 16.4997 92.4672 16.651 92.6749 16.8211C92.4859 17.0854 92.3158 17.3875 92.0701 17.6141C91.9189 17.7462 91.7301 17.595 91.6168 17.5194C91.2958 17.2737 91.0694 16.9147 90.8807 16.5557C90.5784 16.7255 90.3705 16.971 90.0682 17.1408C89.5769 17.4616 88.9913 17.6502 88.3869 17.631C87.858 17.6496 87.3103 17.5549 86.8382 17.3091C86.064 16.8931 85.63 15.9863 85.6494 15.1363C85.6498 14.3052 86.0658 13.4932 86.7271 13.0025C87.5208 12.3985 88.5408 12.2101 89.5042 12.1351C89.9386 12.0975 90.3919 12.0978 90.8453 12.0791C90.8644 11.6447 90.8268 11.2103 90.7704 10.7758C90.7139 10.4169 90.5441 10.039 90.2042 9.84996C89.8077 9.64198 89.3355 9.62285 88.8821 9.69816C88.051 9.79216 87.2764 10.1506 86.5962 10.6414C86.4074 10.3768 86.2187 10.1312 86.0677 9.84778C85.9922 9.71552 86.1056 9.60225 86.219 9.54565C87.1259 9.03614 88.1272 8.60224 89.1849 8.62168L89.6382 8.62192C89.8649 8.60315 90.0916 8.60327 90.3182 8.64117ZM89.7493 12.9663C89.3337 13.0039 88.8993 13.0225 88.5026 13.1356C88.0114 13.2676 87.5579 13.5885 87.2932 14.0228C87.142 14.2682 87.1418 14.5704 87.1228 14.8537C87.1226 15.156 87.0847 15.4959 87.1979 15.7793C87.311 16.0816 87.5187 16.365 87.8208 16.4785C88.1607 16.6298 88.5574 16.6489 88.9352 16.6113C89.3885 16.5549 89.7853 16.3096 90.1254 16.0453C90.4089 15.7999 90.6924 15.4978 90.7115 15.1012C90.7685 14.4023 90.75 13.7035 90.7692 13.0046C90.4292 13.0044 90.0893 12.9287 89.7493 12.9663ZM104.56 8.66757C105.334 8.85686 106.033 9.32944 106.486 9.97188C106.863 10.501 107.109 11.1055 107.222 11.7478C107.316 12.3523 107.353 12.9756 107.315 13.58C107.296 14.5811 106.993 15.582 106.388 16.375C105.897 17.0169 105.141 17.3943 104.366 17.545C103.422 17.7145 102.402 17.544 101.609 16.9769C100.91 16.4854 100.476 15.6919 100.231 14.8984C100.099 14.4828 100.081 14.0673 100.043 13.6328C100.025 12.9151 100.025 12.1973 100.158 11.4985C100.347 10.7053 100.744 9.93108 101.349 9.36474C101.802 8.94944 102.369 8.6853 102.973 8.61007C103.502 8.55368 104.031 8.57285 104.56 8.66757ZM103.067 9.68675C102.425 9.76197 101.915 10.2717 101.707 10.8571C101.442 11.4803 101.479 12.1603 101.46 12.8214C101.479 13.4447 101.478 14.068 101.591 14.6914C101.667 15.107 101.799 15.5226 102.082 15.8438C102.346 16.1651 102.743 16.3731 103.139 16.4488C103.29 16.4867 103.46 16.5057 103.611 16.5057L103.763 16.5058L103.914 16.487C104.235 16.4494 104.537 16.3551 104.82 16.2042C105.161 16.0155 105.406 15.6567 105.539 15.2979C105.709 14.8635 105.728 14.3914 105.766 13.9381C105.785 13.3903 105.804 12.8425 105.767 12.2948C105.729 11.7281 105.654 11.1425 105.39 10.6324C105.145 10.2545 104.805 9.93322 104.389 9.74411C103.993 9.63058 103.521 9.63033 103.067 9.68675ZM109.641 8.9158C110.056 8.80269 110.453 8.67068 110.869 8.57646C111.095 8.99212 111.133 9.48324 111.151 9.93657C111.359 9.78557 111.529 9.57789 111.718 9.3891C112.304 8.80387 113.173 8.44545 114.004 8.597L114.004 8.71033C113.815 9.10688 113.701 9.54126 113.531 9.95671C113.512 10.0323 113.399 10.0133 113.342 10.0133C112.983 10.0131 112.587 10.0129 112.266 10.2016C111.944 10.3903 111.661 10.6357 111.434 10.9378C111.207 11.221 111.245 11.6177 111.245 11.9577C111.226 12.4488 111.206 12.9398 111.225 13.4309C111.224 14.7531 111.224 16.0942 111.223 17.4164C110.77 17.435 110.316 17.4348 109.863 17.4157C109.864 15.9424 109.865 14.4502 109.865 12.9769C109.866 11.9758 109.866 10.9559 109.829 9.95476C109.792 9.61475 109.678 9.2747 109.641 8.9158ZM76.8318 8.91738C77.2285 8.78537 77.6442 8.63449 78.0597 8.6347C78.2106 9.03144 78.3048 9.44703 78.3613 9.86261C78.7203 9.63613 79.0226 9.33408 79.4005 9.12651C80.1185 8.71135 80.9875 8.40959 81.7995 8.71223C82.2717 8.88247 82.7437 9.14716 83.0268 9.58174C83.2533 9.88407 83.3098 10.2996 83.3473 10.6774C83.4222 12.0185 83.4026 13.3596 83.4019 14.7196C83.4014 15.6262 83.4198 16.514 83.4193 17.4206C82.966 17.4393 82.5127 17.439 82.0594 17.4199C82.0602 15.9466 82.0232 14.4544 82.024 12.9811C82.0055 12.15 82.0437 11.3378 81.9497 10.5067C81.8177 10.11 81.4401 9.78868 81.0246 9.76957C80.7224 9.75052 80.4013 9.75035 80.099 9.86352C79.4567 10.1087 78.8709 10.5051 78.3418 10.9392C78.3218 13.0925 78.3395 15.2647 78.3384 17.4179C77.9417 17.4177 77.5451 17.4364 77.1484 17.4173C77.1491 16.1896 77.1119 14.9618 77.1126 13.7341C77.0944 12.4685 77.1139 11.2219 77.039 9.95635C77.0203 9.59746 76.9072 9.25741 76.8318 8.91738Z" fill="black"/>
</svg>
